<?xml version="1.0" encoding="UTF-8"?>
<svg version="1.1" viewBox="0 0 1600 1600" width="1280" height="1280" xmlns="http://www.w3.org/2000/svg">
<path transform="translate(1077 240)" d="m0 0c1.99-0.00241 3.99-0.00482 5.98-0.00746 6.24-0.00805 12.5-0.0106 18.7-0.00987 6.36 6.01e-4 12.7-0.00998 19.1-0.0257 5.54-0.0132 11.1-0.0184 16.6-0.0178 3.27 2.51e-4 6.55-0.00333 9.82-0.0132 15.6-0.0425 30.9 0.494 46.4 2.24 1.24 0.132 1.24 0.132 2.51 0.267 1.2 0.129 1.2 0.129 2.43 0.26 1.07 0.114 1.07 0.114 2.16 0.231 2.47 0.315 4.81 0.887 7.21 1.55 6.44 1.7 12.9 2.95 19.5 4.15 4.61 0.879 8.85 2.02 13.2 3.75 3.59 1.4 7.27 2.53 10.9 3.72 5.34 1.76 10.6 3.53 15.7 5.95 2.62 1.23 5.27 2.35 7.93 3.48 8.76 3.74 17.1 8.05 25.4 12.6 0.942 0.491 1.88 0.982 2.86 1.49 7.47 3.92 14.4 8.55 21.3 13.3 2.65 1.79 5.33 3.53 8 5.29 6.12 4.08 12 8.47 17.8 12.9 1.12 0.843 1.12 0.843 2.26 1.7 12 9.17 23.1 19.3 33.8 30.1 1.9 1.91 3.8 3.8 5.71 5.7 1.21 1.21 2.43 2.43 3.64 3.64 0.569 0.564 1.14 1.13 1.72 1.71 3.91 3.96 3.91 3.96 3.91 6.19 0.99 0.33 1.98 0.66 3 1 0.667 1.67 1.33 3.33 2 5 0.99 0.33 1.98 0.66 3 1 0.941 1.32 1.87 2.66 2.73 4.04 1.51 2.32 3.17 4.5 4.84 6.71 3.64 4.97 6.92 10.1 10.1 15.4 0.451 0.74 0.903 1.48 1.37 2.24 8.15 13.5 15.8 27.3 20.8 42.3 1.1 3.2 2.35 6.28 3.64 9.4 5.54 14.4 7.98 29.8 10.2 44.9 0.151 1.01 0.303 2.03 0.459 3.07 0.131 0.903 0.261 1.81 0.396 2.74 0.303 2.22 0.303 2.22 1.4 4.19 0.994 7.14 1.16 14.3 1.17 21.5 0.00333 0.957 0.00666 1.91 0.0101 2.9 0.00502 2.01 0.00741 4.01 0.00725 6.02 0.00219 3.04 0.0204 6.08 0.0393 9.12 0.00293 1.96 0.00492 3.93 0.00586 5.89 0.0108 1.34 0.0108 1.34 0.0218 2.71-0.023 6.46-0.954 12.5-2.25 18.8-0.335 1.89-0.669 3.78-1 5.68-0.333 1.88-0.667 3.76-1 5.64-0.165 0.949-0.33 1.9-0.5 2.88-0.852 4.77-1.87 9.24-3.5 13.8-0.53 2.34-0.988 4.69-1.44 7.05-0.563 1.95-0.563 1.95-2.56 3.95-0.56 1.82-1.05 3.65-1.5 5.5-1.28 5.28-1.28 5.28-3.5 7.5-0.588 1.36-1.12 2.74-1.62 4.12-4.32 11.1-9.96 21.8-16.4 31.9-0.808 1.29-0.808 1.29-1.63 2.61-3.05 4.75-3.05 4.75-4.37 6.39h-2c-0.271 0.735-0.541 1.47-0.82 2.23-3.29 7.74-9.32 14.3-14.5 20.9-0.792 1.01-0.792 1.01-1.6 2.05-1.32 1.65-2.7 3.24-4.09 4.83h-2c-0.227 0.722-0.454 1.44-0.688 2.19-1.58 3.38-3.62 5.25-6.31 7.81-0.722 0.928-1.44 1.86-2.19 2.81-0.598 0.722-1.2 1.44-1.81 2.19h-2c-0.247 0.557-0.495 1.11-0.75 1.69-3.15 5.83-7.99 10.4-13.2 14.3h-2c-0.242 0.592-0.485 1.18-0.734 1.79-1.5 2.62-3.07 3.77-5.52 5.52-3.71 2.76-6.53 5.61-9.42 9.2-1.82 2.04-3.96 3.16-6.33 4.49-1.67 1.66-3.34 3.33-5 5-1.58 1.36-3.19 2.69-4.81 4-1.43 1.16-1.43 1.16-2.89 2.34l-1.58 1.28c-1.89 1.53-3.76 3.07-5.63 4.61-7.18 5.9-14.4 11.6-22.1 16.8-1.34 0.976-2.67 1.95-4 2.94-3 2.06-3 2.06-5 2.06-0.33 0.99-0.66 1.98-1 3-1.55 1.2-1.55 1.2-3.54 2.35-0.723 0.431-1.45 0.861-2.19 1.31-0.75 0.445-1.5 0.889-2.27 1.35-1.4 0.888-2.79 1.78-4.18 2.68-0.695 0.45-1.39 0.899-2.11 1.36-0.709 0.459-1.42 0.918-2.15 1.39-0.747 0.484-1.49 0.967-2.26 1.47-4.43 2.87-8.83 5.77-13.2 8.71-3.39 2.24-6.82 4.41-10.2 6.58-1.95 1.24-3.89 2.5-5.81 3.77-0.959 0.63-1.92 1.26-2.91 1.91-0.864 0.575-1.73 1.15-2.62 1.74-2.55 1.41-4.64 1.98-7.51 2.38-0.33 0.99-0.66 1.98-1 3-1.86 0.993-3.74 1.97-5.65 2.87-4.16 2-8.11 4.38-12.1 6.69-13.9 7.99-27.9 15.9-42.3 22.9-3.3 1.65-6.52 3.41-9.72 5.25-1.97 1.08-3.95 2.09-5.96 3.09-3.67 1.82-7.28 3.73-10.9 5.65-11.9 6.35-24 12.2-36.4 17.6-3.18 1.45-6.29 3.05-9.41 4.63-3.65 1.8-7.36 3.44-11.1 5.08-2.59 1.18-2.59 1.18-5.09 2.75-2.26 1.35-4.37 2.3-6.82 3.21-4.36 1.69-8.59 3.61-12.8 5.62-6.33 3-12.7 5.67-19.3 8.23-3.2 1.26-6.38 2.57-9.55 3.9-5.81 2.43-11.6 4.78-17.5 7.1-2 0.797-3.99 1.6-5.98 2.42-6.64 2.74-13.4 5.05-20.2 7.4-5.09 1.77-10.1 3.62-15.1 5.67-3.51 1.42-7.07 2.68-10.6 3.96-2.25 0.813-4.48 1.65-6.72 2.5-4.25 1.6-8.56 3.02-12.9 4.44-0.663 0.224-1.33 0.449-2.01 0.68-18.2 6.15-36.6 11.7-55.3 16-4.51 1.03-8.93 2.21-13.3 3.62-6.77 2.03-13.6 3.38-20.6 4.65-5.8 1.07-11.5 2.2-17.2 3.69-15.8 3.75-48.3 9-63.6 1.38-2.16-0.346-4.33-0.652-6.5-0.938-9.24-1.29-18.2-3.17-27.2-5.5-1.21-0.308-1.21-0.308-2.45-0.622-4.84-1.27-9.29-2.88-13.9-4.94-3.3-1.26-6.6-2.49-9.91-3.72-2.92-1.21-5.41-2.61-8.09-4.28-1.02-0.547-2.04-1.09-3.09-1.66-8.96-4.85-16.3-10.6-23.9-17.3-1.53-1.19-1.53-1.19-3.08-2.41-3.24-2.88-5.35-5.75-7.61-9.41-0.389-0.625-0.777-1.25-1.18-1.89-7.65-12.5-8.45-25.3-5.21-39.5 3.43-12.2 10.9-22.6 19.4-31.9 1.11-1.24 2.19-2.5 3.23-3.8 5.08-6.28 11.3-10.9 17.7-15.8 1.63-1.23 3.24-2.48 4.85-3.72 5.29-4.06 10.7-7.87 16.3-11.5 0.857-0.554 0.857-0.554 1.73-1.12 9.45-6.01 9.45-6.01 12.9-6.01v-2c13.2-7.32 13.2-7.32 15.6-8.67 1.53-0.852 3.07-1.7 4.6-2.56 5.98-3.33 12-6.62 18-9.89 0.958-0.525 1.92-1.05 2.9-1.59 4.6-2.51 9.2-4.98 13.9-7.29 2.65-1.31 5.29-2.62 7.94-3.94 0.677-0.335 1.35-0.669 2.05-1.01 3.74-1.86 7.39-3.81 11-5.9 5.58-3.18 11.3-6.16 16.9-9.19 4.85-2.61 9.64-5.26 14.3-8.12 4.06-2.47 8.19-4.65 12.5-6.7 5.27-2.58 10.4-5.29 15.5-8.25 5.23-3.04 10.5-5.79 16-8.45 2.6-1.33 5.05-2.76 7.53-4.3 4-2.45 8.1-4.57 12.3-6.62 8.46-4.13 16.6-8.74 24.8-13.4 6.08-3.45 12.2-6.7 18.5-9.77 2.45-1.24 4.79-2.58 7.13-4.02 4.97-3.06 10.1-5.84 15.2-8.62 7.42-4.05 14.7-8.24 21.9-12.6 3.15-1.91 6.32-3.77 9.51-5.61 5.28-3.06 10.5-6.25 15.6-9.46 3.09-1.89 6.21-3.72 9.35-5.54 8.99-5.23 17.6-10.9 26-17 8.91-6.46 8.91-6.46 11.9-6.46 0.33-0.99 0.66-1.98 1-3 2.19-1.54 2.19-1.54 5-3.19 5.58-3.43 10.2-7.37 15-11.8 1.37-1.17 2.75-2.34 4.12-3.5 3.42-2.98 6.37-6.21 9.3-9.67 1.58-1.83 1.58-1.83 4.02-4.2 4.31-4.42 8.92-9.31 11.7-14.9 0.887-1.75 0.887-1.75 2.89-2.75 2.83-5.18 5.06-10.5 7.17-16 0.832-2 0.832-2 1.83-3 0.255-4.22 0.185-8.46 0.188-12.7 0.0184-1.78 0.0184-1.78 0.0371-3.59 0.00193-1.15 0.00387-2.3 0.00586-3.48 0.00616-1.58 0.00616-1.58 0.0125-3.19-0.263-3.3-1.11-5.95-2.24-9.05-0.415-2.16-0.81-4.33-1.19-6.5-1.66-7.93-4.9-14.5-8.81-21.5-0.536-1.02-1.07-2.04-1.62-3.09-5.51-10.1-12.9-19.5-21.9-26.7-1.47-1.19-1.47-1.19-3.91-3.69-15.9-15.5-37.6-24.6-59.6-24.7-0.997-0.00683-1.99-0.0137-3.02-0.0207-3.31-0.0173-6.61-0.0234-9.92-0.0262-1.14-2e-3 -2.27-0.00401-3.44-0.00607-20.4-0.0087-40.8 0.701-61.2 1.69-0.704 0.0338-1.41 0.0675-2.13 0.102-4.69 0.225-9.38 0.462-14.1 0.706-1.2 0.0605-2.4 0.121-3.64 0.183-1.09 0.06-2.18 0.12-3.31 0.182-0.955 0.0511-1.91 0.102-2.89 0.155-2.31 0.102-2.31 0.102-4.28 1.23-2.61 0.251-5.21 0.45-7.83 0.613-1.67 0.112-3.33 0.225-5 0.338-1.33 0.0878-1.33 0.0878-2.68 0.177-14.8 0.992-29.6 2.11-44.3 3.57-1.66 0.161-3.32 0.317-4.98 0.465-2.32 0.209-4.63 0.441-6.94 0.68-1.31 0.128-2.62 0.255-3.97 0.386-4.54 1.07-6.13 3.07-8.68 6.81-0.408 0.711-0.816 1.42-1.24 2.16-0.459 0.794-0.917 1.59-1.39 2.41-0.706 1.25-0.706 1.25-1.43 2.52-0.486 0.849-0.971 1.7-1.47 2.57-3.23 5.67-6.34 11.4-9.09 17.3h-2c-0.247 1.03-0.495 2.06-0.75 3.12-0.888 3.1-2.15 5.39-4.05 8.02-1.6 2.48-2.84 5.08-4.14 7.73-2.03 4.12-4.16 8.02-6.65 11.9-5.05 8.05-9.57 16.5-14.1 24.8-1.73 3.17-3.52 6.3-5.32 9.42h-2c-0.22 0.801-0.22 0.801-0.445 1.62-1.65 5.48-3.96 9.98-6.99 14.8-2.46 4.05-4.51 8.3-6.56 12.6h-2c-0.206 0.763-0.412 1.53-0.625 2.31-1.94 5.19-4.66 9.87-7.38 14.7-0.788 1.42-1.58 2.85-2.36 4.27-1.71 3.09-3.45 6.16-5.22 9.21-7.89 13.6-15.3 27.5-22.7 41.4-1.59 2.98-3.21 5.95-4.83 8.92-2.63 4.8-5.19 9.64-7.73 14.5-2.74 5.22-5.48 10.4-8.27 15.6-3.38 6.28-6.62 12.6-9.79 19-2.43 4.9-4.98 9.73-7.57 14.6-3.39 6.33-6.53 12.7-9.55 19.3-3.17 6.83-6.54 13.6-9.93 20.3-1.76 3.5-3.52 7.01-5.27 10.5-0.63 1.26-1.26 2.52-1.89 3.78l-0.936 1.87c-0.907 1.81-1.81 3.63-2.72 5.44-0.332 0.666-0.665 1.33-1.01 2.02-0.914 1.82-1.84 3.64-2.76 5.46-4.4 8.7-8.48 17.5-12.4 26.4-3.99 8.98-8.1 17.8-12.6 26.6-1.4 2.84-2.52 5.66-3.56 8.64-1.55 4-3.44 7.85-5.28 11.7-1.96 4.14-3.8 8.32-5.6 12.5-0.724 1.59-1.45 3.17-2.19 4.75-4.97 10.9-9.56 22-14 33.1-1.21 2.98-2.54 5.91-3.86 8.84-1.78 4.05-3.38 8.17-5 12.3-2.04 5.14-4.11 10.3-6.25 15.4-5.19 12.4-10.2 24.9-14.7 37.6-0.965 2.71-1.99 5.36-3.08 8.02-2.54 6.26-4.76 12.6-7 19-1.02 2.9-2.04 5.79-3.06 8.69-0.255 0.723-0.51 1.45-0.772 2.19-2.3 6.53-4.66 13-7.05 19.5-5 13.6-9.85 27.3-14.1 41.2-1.04 3.38-2.13 6.57-3.56 9.81-1.77 4.23-2.88 8.47-3.98 12.9-1.17 4.7-2.37 9.35-3.94 13.9-1.95 5.71-3.45 11.5-5 17.4-0.62 2.33-1.24 4.65-1.86 6.98-0.295 1.1-0.589 2.21-0.893 3.34-1.23 4.58-2.54 9.13-3.85 13.7-1.12 3.89-2.23 7.78-3.33 11.7-0.206 0.732-0.411 1.46-0.623 2.22-1.27 4.59-2.45 9.2-3.58 13.8-0.267 1.09-0.534 2.18-0.809 3.31-0.525 2.16-1.04 4.32-1.55 6.48-0.239 0.984-0.477 1.97-0.723 2.98-0.209 0.88-0.418 1.76-0.634 2.67-0.698 2.14-0.698 2.14-2.7 4.14-0.65 1.5-1.25 3.03-1.81 4.56-1.98 5.1-4.39 9.74-7.19 14.4-0.437 0.737-0.874 1.47-1.32 2.23-2.01 3.3-3.9 6.07-6.68 8.77-1.09 1.27-2.17 2.54-3.25 3.81-3.26 3.74-6.66 7.34-10.8 10.2h-2l-0.625 1.75c-2.88 4.72-8.47 7.02-13.4 9.25h-2c-0.33 0.99-0.66 1.98-1 3-2.71 1.52-2.71 1.52-6 3l-2.69 1.36c-15 7.25-31.1 12.1-47.3 15.6-0.746 0.166-1.49 0.332-2.26 0.503-15.8 3.45-31.7 5.07-47.7 6.5-0.99 0.0986-1.98 0.197-3 0.299-9.62 0.878-19.2 0.853-28.9 0.832-2.92-0.00544-5.83 1.55e-5 -8.75 0.00635-1.85-6.59e-4 -3.7-0.00194-5.55-0.00391-1.31 0.00304-1.31 0.00304-2.64 0.00613-6.07-0.0239-6.07-0.0239-7.18-1.14-1.9-0.111-3.81-0.156-5.71-0.176-47.8-0.831-102-9.66-137-44.8-0.978-0.78-1.96-1.56-2.96-2.36-3.47-2.84-6-6.19-8.6-9.82-0.48-0.664-0.959-1.33-1.45-2.01-3.57-5.03-6.62-10.1-8.98-15.8-0.378-0.904-0.755-1.81-1.14-2.74-2.26-5.77-3.61-11.1-3.86-17.3-0.0599-1.17-0.0599-1.17-0.121-2.36-0.43-15.9 4.92-31.8 12.2-45.8 1.46-2.89 2.68-5.89 3.95-8.87 1.68-3.64 3.41-7.25 5.13-10.9 1.74-3.68 3.42-7.34 4.87-11.1h2c0.124-0.722 0.248-1.44 0.375-2.19 0.615-2.77 1.51-5.21 2.62-7.81h2c0.182-0.592 0.364-1.18 0.551-1.79 1.42-4.45 2.89-8.27 5.45-12.2 0.737-1.31 1.47-2.62 2.19-3.94 2.23-4.04 4.52-8.06 6.81-12.1 3.04-5.31 6.04-10.6 9-16 0.833-1.5 1.67-3 2.5-4.5 0.412-0.742 0.825-1.49 1.25-2.25 7.08-12.7 14.2-25.5 21.2-38.2h2c0.227-0.812 0.454-1.62 0.688-2.46 1.63-4.39 3.89-8.17 6.31-12.2 0.897-1.49 1.79-2.98 2.69-4.48l1.2-1.98c1.12-1.94 2.13-3.91 3.11-5.92h2c0.248-0.846 0.495-1.69 0.75-2.56 2.18-5.99 5.7-11.2 9.09-16.5 1.01-1.67 1.91-3.42 2.79-5.17 1.38-2.75 1.38-2.75 2.78-4.59 1.75-2.37 3.09-4.8 4.47-7.41 1.85-3.46 3.75-6.83 5.88-10.1 1.78-2.78 3.17-5.48 4.25-8.62h2c0.268-0.891 0.536-1.78 0.812-2.7 1.12-3.11 2.36-5.39 4.19-8.11 3.13-4.78 6.06-9.63 8.94-14.6 3.73-6.39 7.55-12.7 11.5-19 1.32-2.18 2.5-4.34 3.59-6.64h2c0.249-0.866 0.498-1.73 0.754-2.62 1.32-3.58 3-6.25 5.18-9.38 2.71-3.9 4.97-7.74 7.06-12 1.08-1.79 2.18-3.56 3.31-5.31 0.611-0.951 1.22-1.9 1.85-2.88 1.65-2.52 3.33-5.01 5.02-7.49 2.25-3.35 4.15-6.74 5.86-10.4 2.15-4.32 4.84-8.32 7.46-12.4 1.93-3.01 3.79-5.96 5.31-9.19 1.19-2.38 1.19-2.38 3.19-3.38 0.899-1.8 1.79-3.6 2.66-5.41 1.64-3.18 3.47-6.23 5.34-9.28 0.66-1.08 1.32-2.15 2-3.26 1.86-2.83 3.88-5.41 6-8.05 1.24-2.68 1.24-2.68 2-5h2c0.186-0.784 0.371-1.57 0.562-2.38 1.64-4.13 3.86-7.21 6.45-10.8 2.87-4.08 5.42-8.34 8.01-12.6 1.85-3.02 3.75-6.01 5.67-8.99 2.59-4.03 4.95-8.13 7.17-12.4 1.14-1.88 1.14-1.88 2.58-3.28 2.1-2.15 3.35-4.54 4.81-7.16 2.83-4.97 5.92-9.61 9.25-14.2 1.79-2.61 3.14-5.34 4.5-8.19 0.516-0.681 1.03-1.36 1.56-2.06 1.56-1.93 1.56-1.93 2.44-4.5 1-2.44 1-2.44 2.37-3.77 2.01-2.05 3.31-4.25 4.76-6.73 0.518-0.878 1.04-1.76 1.57-2.66 0.805-1.41 1.58-2.83 2.3-4.28h2c0.268-0.722 0.536-1.44 0.812-2.19 2.18-5.16 5.4-9.75 8.44-14.4 0.8-1.24 1.6-2.48 2.4-3.72 0.395-0.614 0.791-1.23 1.2-1.86 1.68-2.61 3.36-5.23 5.03-7.85 0.534-0.837 1.07-1.67 1.62-2.54 1.07-1.71 2.09-3.45 3.08-5.21 0.472-0.723 0.944-1.45 1.43-2.19h2l0.777-2.69c1.23-3.34 2.62-5.51 4.79-8.31 3.24-4.32 6.28-8.71 9.19-13.2 0.364-0.566 0.728-1.13 1.1-1.71 2.51-3.94 4.85-7.96 7.15-12h2c0.268-0.717 0.536-1.43 0.812-2.17 1.2-2.86 2.6-5.42 4.19-8.08 0.516-0.871 1.03-1.74 1.56-2.64 1.44-2.11 1.44-2.11 3.44-3.11 1.02-1.99 2.02-3.99 3-6 2.06-3.37 2.06-3.37 4-6h2c0.248-0.887 0.495-1.77 0.75-2.69 1.32-3.51 2.91-5.41 5.25-8.31 1.58-2.3 3.07-4.65 4.56-7 0.386-0.603 0.772-1.21 1.17-1.83 1.71-2.67 3.37-5.35 4.92-8.11 0.445-0.681 0.889-1.36 1.35-2.06h2c0.254-0.883 0.508-1.77 0.77-2.68 1.26-3.4 2.72-5.65 4.92-8.51 5.24-6.99 9.84-14.3 14.3-21.8l-1-1c-6.29 0.462-12.1 1.64-18.2 3.31-0.835 0.225-1.67 0.45-2.53 0.682-5.74 1.56-11.5 3.19-17.2 4.85-4.5 1.29-9.02 2.48-13.5 3.68-13.8 3.68-27.5 7.52-40.9 12.5-2.87 1.02-5.76 1.9-8.68 2.77-6.47 1.95-12.8 4.26-19.1 6.64-4.54 1.7-9.1 3.3-13.7 4.82-2.73 0.922-5.43 1.93-8.12 2.96-2.21 0.836-4.42 1.65-6.64 2.46-10.6 3.86-21.1 7.74-31.3 12.4-1.51 0.666-3.03 1.3-4.56 1.91-7.25 2.9-14.3 6.35-21.4 9.64-0.933 0.433-0.933 0.433-1.88 0.876-2.84 1.33-5.66 2.68-8.45 4.1-2.56 1.25-5.02 2.22-7.73 3.08-0.781 0.251-1.56 0.503-2.37 0.762-0.87 0.273-0.87 0.273-1.76 0.551v2c-1.13 0.519-2.27 1.04-3.44 1.57-10.3 4.66-10.3 4.66-20 10.4-2.14 1.42-4.38 2.64-6.62 3.9-3.51 2.06-6.92 4.28-10.3 6.48-7.37 4.68-7.37 4.68-9.65 4.68l-1 3c-1.67 1.32-1.67 1.32-3.75 2.56-0.719 0.433-1.44 0.866-2.18 1.31-2.07 1.13-2.07 1.13-4.95 2.19-2.27 0.729-2.27 0.729-3.04 2.8-1.24 2.44-2.54 3.6-4.65 5.33-5.31 4.49-10.2 9.4-15 14.4-1.8 1.87-3.3 3.31-5.65 4.45-2.35 1.22-2.68 2.61-3.81 4.94-0.99 0.33-1.98 0.66-3 1-0.33 0.66-0.66 1.32-1 2-0.33 0.66-0.66 1.32-1 2-0.99 0.33-1.98 0.66-3 1-0.33 0.66-0.66 1.32-1 2-0.33 0.66-0.66 1.32-1 2-0.99 0.33-1.98 0.66-3 1-0.33 0.99-0.66 1.98-1 3-1.35 0.981-2.72 1.95-4.14 2.83-1.33 0.84-2.63 1.73-3.91 2.66-4.74 3.4-9.03 5.45-14.7 6.88-2.25 0.533-2.25 0.533-4 1.66-3.01 1.3-5.48 1.24-8.75 1.24-1.26 0.00258-2.53 0.00516-3.83 0.00781-1.32-0.00773-2.64-0.0155-3.99-0.0234l-3.96 0.0234c-1.9-0.00387-1.9-0.00387-3.84-0.00781-1.15-0.00226-2.31-0.00451-3.49-0.00684-3.69-0.281-6.87-1.15-10.4-2.26-1.92-0.397-3.83-0.793-5.75-1.19-6.68-1.65-11.7-4.8-17.2-8.81-1.55-1.08-1.55-1.08-3.12-2.19-7.46-6.5-15.2-16.8-16-26.7-0.664-11.9 0.766-21 5.15-32.1 0.847-2.52 1.68-5.04 2.5-7.56 1.97-5.93 4.05-11.8 6.18-17.7 1.81-5.13 3.51-10.3 5.18-15.5 1.49-4.55 3.23-8.91 5.14-13.3 0.973-2.54 1.93-5.08 2.88-7.62 0.523-1.4 1.05-2.8 1.57-4.2 0.764-2.05 1.53-4.09 2.28-6.14 0.669-1.8 1.34-3.6 2.02-5.4 0.387-1.04 0.773-2.08 1.17-3.15 1.08-2.48 1.08-2.48 3.08-4.48 1.08-2.96 1.98-5.95 2.9-8.96 1.08-3 2.46-5.32 4.1-8.04 1.23-2.72 2.33-5.48 3.44-8.25 0.626-1.54 1.25-3.07 1.88-4.61 0.561-1.38 1.12-2.76 1.68-4.14 2.71-6.65 6.05-12.9 9.44-19.2 3.06-5.74 5.87-11.6 8.61-17.5 3.2-6.9 6.6-13.7 10-20.5 0.897-1.79 1.78-3.58 2.66-5.37l1.58-3.22c0.45-0.923 0.9-1.85 1.36-2.8 1.27-2.35 2.7-4.34 4.32-6.45 1.02-1.99 2.02-3.99 3-6 0.762-1.4 1.53-2.79 2.31-4.18 1.68-3.01 3.35-6.02 5.02-9.04 15.7-28.5 15.7-28.5 24.7-40.8 0.99-1.49 0.99-1.49 2-3h2c0.272-0.739 0.544-1.48 0.824-2.24 5.03-11.8 17.4-20.6 28.8-25.8 3.24-1.28 6.52-2.29 9.89-3.18 2.6-0.798 5.02-1.85 7.51-2.94 3.93-1.63 7.97-2.93 12-4.27 0.925-0.308 1.85-0.616 2.8-0.933 6.44-2.12 12.9-3.99 19.5-5.61 3.12-0.857 6.11-1.84 9.16-2.91 7.31-2.47 14.8-4.1 22.3-5.74 2.05-0.45 4.1-0.903 6.14-1.36 1.85-0.407 3.69-0.811 5.54-1.21 2.52-0.57 5.02-1.17 7.52-1.8 3.96-1 7.95-1.85 11.9-2.66 1.08-0.222 1.08-0.222 2.19-0.448 2.28-0.467 4.56-0.932 6.85-1.4 3.01-0.614 6.02-1.23 9.03-1.84 0.715-0.146 1.43-0.292 2.17-0.442 3.73-0.763 7.44-1.56 11.2-2.4 2.79-0.611 5.39-1.03 8.21-1.31 5.82-0.577 11.4-1.94 17-3.45 4.75-1.18 9.52-1.87 14.4-2.53 0.916-0.128 1.83-0.256 2.78-0.388 2.9-0.405 5.8-0.804 8.7-1.2 2.92-0.402 5.84-0.805 8.76-1.21 1.81-0.253 3.62-0.502 5.44-0.748 0.815-0.114 1.63-0.227 2.47-0.344 0.718-0.0983 1.44-0.197 2.17-0.298 1.88-0.268 1.88-0.268 3.78-1.33 2.82-0.313 5.64-0.51 8.47-0.719 2.52-0.133 2.52-0.133 4.53-1.28 3.11-0.281 6.23-0.447 9.35-0.621 2.74-0.284 5.1-0.682 7.75-1.32 6.02-1.41 12.1-1.94 18.3-2.56 9.7-0.983 9.7-0.983 19.3-2.54 5.3-1.01 10.6-1.51 15.9-1.9 9.39-0.751 18.7-1.78 28.1-2.95 8.18-1.01 16.4-1.8 24.6-2.46 0.857-0.0715 1.71-0.143 2.6-0.217 0.752-0.0595 1.5-0.119 2.28-0.18 1.94-0.16 1.94-0.16 3.85-1.25 1.7-0.188 3.4-0.321 5.1-0.427 1.62-0.107 1.62-0.107 3.27-0.216 1.19-0.0752 2.37-0.15 3.59-0.228 15.4-1.04 30.8-2.38 46.2-3.79 3.76-0.343 7.51-0.68 11.3-1.02 2.93-0.262 5.86-0.528 8.79-0.795 1.39-0.126 2.78-0.251 4.16-0.374 1.91-0.171 3.83-0.347 5.74-0.523 1.08-0.0983 2.17-0.197 3.28-0.298 2.54-0.191 2.54-0.191 4.56-1.33 2.81-0.215 5.59-0.377 8.4-0.5 0.834-0.0406 1.67-0.0812 2.53-0.123 2.67-0.13 5.34-0.254 8.01-0.377 3.51-0.162 7.02-0.329 10.5-0.5 0.809-0.0354 1.62-0.0709 2.45-0.107 3.24-0.158 5.99-0.363 9.08-1.39 1.5-0.159 3-0.273 4.51-0.357 0.913-0.0535 1.83-0.107 2.77-0.162 0.99-0.0542 1.98-0.108 3-0.164 1.03-0.0604 2.07-0.121 3.13-0.183 3.32-0.194 6.65-0.383 9.97-0.571 13.3-0.749 26.5-1.57 39.7-2.89 5.89-0.587 11.8-1.03 17.7-1.24 1.32-0.0541 1.32-0.0541 2.66-0.109 3.98-0.162 7.95-0.305 11.9-0.449 2.3-0.0834 4.61-0.168 6.91-0.254 2.21-0.0819 4.42-0.16 6.63-0.233 1-0.0367 2-0.0733 3.04-0.111 1.33-0.0454 1.33-0.0454 2.69-0.0918 2.31-0.102 2.31-0.102 4.1-0.678 3.16-0.703 6.23-0.764 9.47-0.885 1.07-0.0417 1.07-0.0417 2.16-0.0842 1.55-0.0597 3.09-0.117 4.64-0.173 2.45-0.0888 4.9-0.183 7.35-0.278 5.2-0.202 10.4-0.397 15.6-0.591 6.03-0.225 12.1-0.453 18.1-0.688 2.41-0.0924 4.82-0.18 7.23-0.267 1.48-0.0571 2.97-0.114 4.45-0.172 1.29-0.0481 2.58-0.0961 3.91-0.146 2.9-0.195 5.55-0.614 8.38-1.23 2.5-0.137 4.97-0.232 7.47-0.281 0.739-0.018 1.48-0.0361 2.24-0.0547 2.45-0.0588 4.9-0.111 7.35-0.164 1.73-0.0406 3.46-0.0816 5.19-0.123 8.47-0.2 16.9-0.382 25.4-0.564 3.85-0.0832 7.69-0.168 11.5-0.252 2.7-0.0582 5.4-0.113 8.11-0.168 7.79-0.164 15.6-0.37 23.3-0.764 14.6-0.722 29.1-0.792 43.7-0.796zm-104 3.17v1h8v-1h-8z" fill="#F9FCFE"/>
<path transform="translate(1165,1122)" d="m0 0c6.07 5.42 11.5 10.6 12.2 19.1 0.522 18.9-3.47 37.2-16.2 51.9-0.576 0.681-1.15 1.36-1.75 2.06-9.26 10.6-9.26 10.6-13.3 11.9-0.33 0.99-0.66 1.98-1 3-1.32 0.685-2.66 1.35-4 2-1.36 1.31-2.69 2.65-4 4-2.77 2.48-4.7 3.9-8.25 5.06-0.908 0.309-1.82 0.619-2.75 0.938-0.33 0.99-0.66 1.98-1 3-1.86 0.979-3.72 1.95-5.62 2.83-2.54 1.25-4.91 2.67-7.31 4.17-4.55 2.76-9.14 4.99-14.1 7-0.826 0.339-1.65 0.678-2.5 1.03-2.49 1.01-4.99 1.99-7.5 2.97-1.2 0.474-2.39 0.949-3.62 1.44-6.08 2.26-12.3 4.09-18.5 5.99-1.53 0.477-3.06 0.982-4.58 1.49-13.9 4.59-34.9 7.55-49.1 2.32-6.81-3.83-12.2-9-15.2-16.2 0.122-3.12 0.267-5.1 2.27-7.55 5.17-4.33 12.9-5.89 19.3-7.73 7.45-2.18 14.6-4.83 21.6-8.09 3.59-1.65 7.17-3.14 10.9-4.5 4.85-1.88 8.77-4.62 12.9-7.73 2.03-1.39 2.03-1.39 4.03-1.39-0.113-1.96-0.113-1.96-1-4-2.24-1.19-2.24-1.19-5-1.94-5.42-1.78-10.1-4.13-15-7.06v-2c-0.835-0.309-0.835-0.309-1.69-0.625-6.14-3.65-9.97-10.7-11.9-17.4-1.6-9.3 0.963-19.7 6.29-27.4 1.34-1.62 2.77-3.09 4.28-4.55 0.743-0.763 1.48-1.53 2.25-2.31 6.85-6.7 14-12.6 22.8-16.7 1.33-0.712 1.33-0.712 2.69-1.44 26.5-12.5 69.6-12.8 93.3 6.44zm-96 76c0.33 0.66 0.66 1.32 1 2 0.33-0.66 0.66-1.32 1-2h-2z" fill="#FAFDFF"/>
<path transform="translate(1188 981)" d="m0 0c1.11-0.0122 2.22-0.0245 3.36-0.0371 18.6-0.0327 36.4 3.95 50.3 17 8.25 8.81 10.4 15.8 10.3 27.7-0.447 10.6-3.79 21-11.6 28.5h-2c-0.33 0.99-0.66 1.98-1 3-1.32 0.685-2.66 1.35-4 2-0.619 0.619-1.24 1.24-1.88 1.88-5.62 5.62-13 8.8-20.1 12.1-0.82 0.385-1.64 0.771-2.48 1.17-22.1 9.17-51.9 8.43-74.2 0.309-10.6-4.7-20.3-12.9-25.3-23.5-3.14-12.7-0.327-25.6 5.74-36.9 1.48-2.41 3.09-4.25 5.26-6.06 0.804-0.866 0.804-0.866 1.62-1.75 1.38-1.25 1.38-1.25 3.38-1.25 0.33-0.99 0.66-1.98 1-3 4.17-4.08 7.33-5.75 13-7v-2c7.56-3.66 14.9-6.78 23-9 1.05-0.371 2.1-0.742 3.19-1.12 7.36-2.29 14.9-2.06 22.5-2.06z" fill="#FAFDFF"/>
<path transform="translate(930,451)" d="m0 0h10v1h-10v-1z" fill="#000002"/>
<path transform="translate(285,1306)" d="m0 0h9v1h-9v-1z" fill="#000002"/>
<path transform="translate(357,1305)" d="m0 0 4 1z" fill="#000002"/>
<path transform="translate(1465,569)" d="m0 0 1 4z" fill="#000002"/>
<path transform="translate(1466,561)" d="m0 0 1 4z" fill="#000002"/>
<path transform="translate(1465,496)" d="m0 0 1 4z" fill="#000002"/>
<path transform="translate(1464,490)" d="m0 0 1 4z" fill="#000002"/>
<path transform="translate(368,1304)" d="m0 0c3 1 3 1 3 1z" fill="#000002"/>
<path transform="translate(899,454)" d="m0 0c3 1 3 1 3 1z" fill="#000002"/>
<path transform="translate(1050,449)" d="m0 0c3 1 3 1 3 1z" fill="#000002"/>
<path transform="translate(973,449)" d="m0 0c3 1 3 1 3 1z" fill="#000002"/>
<path transform="translate(393,1300)" d="m0 0 2 1z" fill="#000002"/>
<path transform="translate(826,992)" d="m0 0 2 1z" fill="#000002"/>
<path transform="translate(848,988)" d="m0 0 2 1z" fill="#000002"/>
<path transform="translate(392,557)" d="m0 0 2 1z" fill="#000002"/>
<path transform="translate(513,520)" d="m0 0 2 1z" fill="#000002"/>
<path transform="translate(849,459)" d="m0 0 2 1z" fill="#000002"/>
</svg>
